<svg width="22" height="20" viewBox="0 0 22 20" fill="none" xmlns="http://www.w3.org/2000/svg">
<path d="M8.90116 1.50097C9.64283 0.0441341 11.7241 0.0441349 12.4658 1.50097L14.1784 4.8649C14.4777 5.45294 15.0479 5.85548 15.7022 5.94076L19.4221 6.42558C21.1104 6.64562 21.7692 8.74008 20.5108 9.88697L17.9378 12.2321C17.4248 12.6997 17.1909 13.3999 17.3199 14.082L17.9693 17.5151C18.2782 19.1475 16.5773 20.4229 15.0967 19.6691L11.591 17.8841C11.0208 17.5938 10.3462 17.5938 9.77601 17.8841L6.27025 19.6691C4.78972 20.4229 3.08882 19.1475 3.39763 17.5151L4.04707 14.082C4.1761 13.3999 3.94221 12.6997 3.42916 12.2321L0.856131 9.88697C-0.402208 8.74008 0.25659 6.64562 1.94489 6.42558L5.66477 5.94076C6.31909 5.85548 6.88924 5.45294 7.18861 4.8649L8.90116 1.50097Z" fill="#FFC700"/>
</svg>
