<svg width="22" height="20" viewBox="0 0 22 20" fill="none" xmlns="http://www.w3.org/2000/svg">
<path d="M10.2026 1.84124C10.6661 0.930713 11.967 0.930713 12.4305 1.84124L14.143 5.20516C14.5547 6.01372 15.3386 6.56721 16.2383 6.68447L19.9582 7.16929C21.0134 7.30682 21.4251 8.61586 20.6387 9.33266L18.0657 11.6778C17.3602 12.3208 17.0386 13.2835 17.216 14.2214L17.8655 17.6545C18.0585 18.6747 16.9954 19.4719 16.0701 19.0007L12.5643 17.2157C11.7804 16.8165 10.8527 16.8165 10.0688 17.2157L6.56301 19.0007C5.63767 19.4719 4.57461 18.6747 4.76762 17.6545L5.41705 14.2214C5.59447 13.2835 5.27288 12.3208 4.56743 11.6778L1.9944 9.33266C1.20794 8.61585 1.61969 7.30682 2.67487 7.16929L6.39475 6.68447C7.29445 6.56721 8.07841 6.01372 8.49004 5.20516L10.2026 1.84124Z" stroke="#FFC700" stroke-width="1.5"/>
</svg>
